<svg width="50.000000" height="49.000000" viewBox="0 0 50 49" fill="none" xmlns="http://www.w3.org/2000/svg" xmlns:xlink="http://www.w3.org/1999/xlink">
	
	<path id="Vector" d="M24.9994 0.00170898L25.0025 0L25.0025 0.00354004C25.9788 0.538574 44.1097 10.462 44.1097 10.462C44.2019 10.4957 50 12.9033 50 16.7819L50 17.4932C50 20.4187 46.6992 22.4971 45.1255 23.3231C44.0834 22.7661 35.65 18.1726 30.0019 15.0959L29.9964 15.0929L29.9938 15.0916C27.4619 13.7125 25.4914 12.639 24.9997 12.3722C24.7425 12.5129 6.76764 22.3484 4.64435 23.432C2.91895 24.3295 0.972595 25.6777 0 27.494L0 16.7769C0 12.9033 5.79773 10.4961 5.86188 10.476C5.86188 10.476 24.0211 0.535767 24.9961 0.00354004L24.9961 0L24.9994 0.00170898ZM24.9961 48.9963L24.9961 48.9989C24.997 48.9984 24.9978 48.9978 24.9986 48.9974C25 48.9984 25.0012 48.9989 25.0025 49L25.0025 48.9952C25.9788 48.4631 44.14 38.5264 44.14 38.5264C44.2014 38.5034 50 36.0953 50 32.222L50 21.505C49.0248 23.3196 47.0812 24.6697 45.356 25.5608C43.2327 26.65 25.2578 36.4857 24.9991 36.6271C23.4144 35.7606 6.38348 26.4835 4.87494 25.6775C3.30212 26.5035 0 28.579 0 31.5044L0 32.218C0 36.0963 5.79773 38.4999 5.8913 38.5372C5.8913 38.5372 24.0214 48.4584 24.9961 48.9963Z" fill="#FFFFFF" fill-opacity="1.000000" fill-rule="evenodd"/>
</svg>
